<?xml version="1.0" encoding="utf-8"?>
<svg class="youtube" xmlns="http://www.w3.org/2000/svg" width="24px" height="24px" viewBox="0 0 24 24" fill="#000000">
  <path d="M23.74 6.6s-.23-1.65-.95-2.37c-.91-.96-1.93-.96-2.4-1.02C17.04 2.97 12 3 12 3s-5.02-.03-8.37.21c-.46.06-1.48.06-2.39 1.02C.52 4.95.28 6.6.28 6.6S.04 8.55 0 10.48v2.02c.04 1.94.28 3.87.28 3.87s.24 1.65.96 2.38c.91.95 2.1.92 2.64 1.02 1.88.19 7.91.23 8.12.23 0 0 5.05.01 8.4-.23.46-.06 1.48-.06 2.39-1.02.72-.72.96-2.37.96-2.37s.24-1.94.25-3.87v-2.02c-.02-1.94-.26-3.89-.26-3.89zM9.57 15V7.99L16 11.63 9.57 15z"/>
  <path fill="none" d="M0 0h24v24H0z"/>
</svg>
