<?xml version="1.0" encoding="utf-8"?>
<svg version="1.1" id="Layer_1" xmlns="http://www.w3.org/2000/svg" xmlns:xlink="http://www.w3.org/1999/xlink" x="0px" y="0px"
	 viewBox="0 0 24 24" style="enable-background:new 0 0 24 24;" xml:space="preserve">
<style type="text/css">
	.st0{fill:none;}
	.st1{fill:#010101;}
</style>
<g id="XMLID_1630_">
	<g id="XMLID_1634_">
		<rect id="XMLID_1635_" class="st0" width="24" height="24"/>
	</g>
	<path id="XMLID_1631_" class="st1" d="M1,18.9c1.94,1.23,4.17,2.22,7.25,2.09c7.46-0.34,12.46-5.69,12.57-13.51
		C21.63,6.8,22.57,6,23,5.1c-0.69,0.35-1.51,0.57-2.43,0.7c0.84-0.62,1.53-1.38,1.89-2.49c-0.87,0.46-1.77,0.88-2.88,1.09
		c-2.62-3.18-8.9-0.61-7.8,4.12c-4.41-0.27-7.1-2.27-9.34-4.72c-1.28,2.07-0.17,5.2,1.34,6.06C3,9.82,2.41,9.58,1.85,9.32
		c0.08,2.6,1.51,3.85,3.52,4.52C4.76,13.97,4.08,14,3.43,13.89c0.62,1.82,1.94,2.96,4.17,3.18C6.09,18.36,3.27,19.27,1,18.9z"/>
</g>
</svg>
