<?xml version="1.0" encoding="utf-8"?>
<!-- Generator: Adobe Illustrator 19.0.0, SVG Export Plug-In . SVG Version: 6.00 Build 0)  -->
<svg version="1.1" id="Layer_1" xmlns="http://www.w3.org/2000/svg" xmlns:xlink="http://www.w3.org/1999/xlink" x="0px" y="0px"
	 viewBox="0 0 20 20" style="enable-background:new 0 0 20 20;" xml:space="preserve">
<g id="XMLID_1647_">
	<g id="XMLID_1680_">
		<path id="XMLID_1681_" class="st2" d="M13.2,8.8c1.3,0,2.4-1.1,2.4-2.4S14.5,4,13.2,4s-2.4,1.1-2.4,2.4S11.9,8.8,13.2,8.8z
			 M6.8,8.8c1.3,0,2.4-1.1,2.4-2.4S8.1,4,6.8,4S4.4,5.1,4.4,6.4S5.5,8.8,6.8,8.8z M6.5,10.4c-1.9,0-5.5,0.9-5.5,2.8V16h11v-2.8
			C12,11.3,8.4,10.4,6.5,10.4z M13.3,10.4c-0.2,0-0.5,0-0.8,0c0.9,0.7,1.5,1.6,1.5,2.8V16h5v-2.8C19,11.3,15.2,10.4,13.3,10.4z"/>
	</g>
</g>
</svg>
