<?xml version="1.0" encoding="utf-8"?>
<!-- Generator: Adobe Illustrator 19.0.0, SVG Export Plug-In . SVG Version: 6.00 Build 0)  -->
<svg version="1.1" id="Layer_1" xmlns="http://www.w3.org/2000/svg" xmlns:xlink="http://www.w3.org/1999/xlink" x="0px" y="0px"
	 width="24px" height="24px" viewBox="0 0 24 24" enable-background="new 0 0 24 24" xml:space="preserve">
<g id="XMLID_1_">
	<path id="XMLID_13_" fill="none" d="M0,0h24v24H0V0z"/>
	<path id="XMLID_6_" d="M12,2C6.48,2,2,6.48,2,12c0,5.52,4.48,10,10,10s10-4.48,10-10C22,6.48,17.52,2,12,2z M12.72,16.52L12,17.17
		l-0.72-0.66C8.7,14.18,7,12.64,7,10.75C7,9.21,8.21,8,9.75,8c0.87,0,1.71,0.4,2.25,1.04C12.54,8.4,13.38,8,14.25,8
		C15.79,8,17,9.21,17,10.75C17,12.64,15.3,14.18,12.72,16.52z"/>
</g>
</svg>
