<?xml version="1.0" encoding="utf-8"?>
<!-- Generator: Adobe Illustrator 19.0.0, SVG Export Plug-In . SVG Version: 6.00 Build 0)  -->
<svg version="1.1" id="Layer_1" xmlns="http://www.w3.org/2000/svg" xmlns:xlink="http://www.w3.org/1999/xlink" x="0px" y="0px"
	 width="24px" height="24px" viewBox="0 0 24 24" enable-background="new 0 0 24 24" xml:space="preserve">
<g id="XMLID_1_">
	<path id="XMLID_441_" fill="none" d="M0,0h24v24H0V0z"/>
	<path id="XMLID_6_" d="M20,4H4C2.9,4,2,4.9,2,6v12c0,1.1,0.9,2,2,2h16c1.1,0,2-0.9,2-2V6C22,4.9,21.1,4,20,4z M17.86,10.26
		l-0.36,0.33l-0.36-0.33C15.85,9.09,15,8.32,15,7.38C15,6.6,15.6,6,16.38,6c0.43,0,0.85,0.2,1.12,0.52C17.77,6.2,18.19,6,18.62,6
		C19.4,6,20,6.6,20,7.38C20,8.32,19.15,9.09,17.86,10.26z"/>
</g>
</svg>
