<?xml version="1.0" encoding="utf-8"?>
<svg class="gplus" xmlns="http://www.w3.org/2000/svg" width="24px" height="24px" viewBox="0 0 24 24" 	fill="#000000">
<path fill="none" d="M0 0h24v24H0V0z"/>
<path d="M23 11h-2V9h-2v2h-2v2h2v2h2v-2h2zM8 11v2.4h3.97c-.16 1.03-1.2 3.02-3.97 3.02-2.39 0-4.34-1.98-4.34-4.42S5.61 7.58 8 7.58c1.36 0 2.27.58 2.79 1.08l1.9-1.83C11.47 5.69 9.89 5 8 5c-3.87 0-7 3.13-7 7s3.13 7 7 7c4.04 0 6.72-2.84 6.72-6.84 0-.46-.05-.81-.11-1.16H8z"/>
<path fill="none" d="M1 5h14v14H1z"/>
</svg>
