<?xml version="1.0" encoding="utf-8"?>
<!-- Generator: Adobe Illustrator 19.0.0, SVG Export Plug-In . SVG Version: 6.00 Build 0)  -->
<svg version="1.1" id="Layer_1" xmlns="http://www.w3.org/2000/svg" xmlns:xlink="http://www.w3.org/1999/xlink" x="0px" y="0px"
	 width="24px" height="24px" viewBox="0 0 24 24" enable-background="new 0 0 24 24" xml:space="preserve">
<g id="XMLID_10_">
	<g id="XMLID_44_">
		<path id="XMLID_87_" d="M12,9c-1.66,0-3,1.34-3,3s1.34,3,3,3s3-1.34,3-3S13.66,9,12,9z M12,14c-1.1,0-2-0.9-2-2s0.9-2,2-2
			s2,0.9,2,2S13.1,14,12,14z"/>
		<path id="XMLID_363_" d="M4,9c-1.66,0-3,1.34-3,3s1.34,3,3,3s3-1.34,3-3S5.66,9,4,9z M4,14c-1.1,0-2-0.9-2-2s0.9-2,2-2s2,0.9,2,2
			S5.1,14,4,14z"/>
		<circle id="XMLID_364_" cx="20" cy="12" r="3"/>
	</g>
	<path id="XMLID_105_" fill="none" d="M0,0h24v24H0V0z"/>
</g>
</svg>
