<?xml version="1.0" encoding="utf-8"?>
<!-- Generator: Adobe Illustrator 19.0.0, SVG Export Plug-In . SVG Version: 6.00 Build 0)  -->
<svg version="1.1" id="ic_x5F_pesto_x5F_24px" xmlns="http://www.w3.org/2000/svg" xmlns:xlink="http://www.w3.org/1999/xlink"
	 x="0px" y="0px" width="24px" height="24px" viewBox="0 0 24 24" enable-background="new 0 0 24 24" xml:space="preserve">
<g id="XMLID_335_">
	<path id="XMLID_157_" fill="#231F20" d="M23,9.39c0-0.1-0.04-0.19-0.11-0.26l-0.07-0.07c-0.07-0.07-0.16-0.11-0.26-0.11
		c-3.33-0.06-5.68,0.76-6.99,2.46c-1.5,1.95-1.14,4.41-0.96,5.24l-0.94,0.94l-1.07-1.07c0.21-0.85,0.97-4.63-1.28-7.56
		C9.48,6.57,6.18,5.42,1.48,5.51c-0.1,0-0.19,0.04-0.26,0.11l-0.1,0.1C1.05,5.8,1.01,5.89,1.01,5.99c-0.1,4.69,1.06,8,3.45,9.83
		c1.64,1.26,3.54,1.57,5.04,1.57c1.27,0,2.26-0.23,2.58-0.31l1.3,1.3c0.07,0.07,0.17,0.11,0.27,0.11c0.05,0,0.11-0.01,0.15-0.04
		c0.06-0.02,0.11-0.04,0.16-0.09l1.09-1.09c0.18,0.05,0.91,0.23,1.87,0.23c1.08,0,2.44-0.23,3.61-1.13
		C22.24,15.08,23.07,12.72,23,9.39z M4.92,15.21c-2.14-1.64-3.2-4.65-3.15-8.94c4.29-0.06,7.3,1.01,8.94,3.15
		c1.75,2.27,1.47,5.21,1.24,6.46l-1.89-1.89c0-0.02,0.01-0.03,0.01-0.05v-3.81c0-0.21-0.17-0.38-0.38-0.38
		c-0.21,0-0.38,0.17-0.38,0.38v3.1L6.07,9.99c-0.15-0.15-0.39-0.15-0.54,0c-0.15,0.15-0.15,0.39,0,0.54l3.02,3.02H6.26
		c-0.21,0-0.38,0.17-0.38,0.38s0.17,0.38,0.38,0.38h3.05l2.13,2.13C10.24,16.67,7.24,16.99,4.92,15.21z M20.07,15.77
		c-1.52,1.17-3.49,1.01-4.38,0.86l1.94-1.94h1.56c0.21,0,0.38-0.17,0.38-0.38s-0.17-0.38-0.38-0.38h-0.8l1.48-1.48
		c0.15-0.15,0.15-0.39,0-0.54c-0.15-0.15-0.39-0.15-0.54,0l-1.67,1.67v-0.79c0-0.21-0.17-0.38-0.38-0.38
		c-0.21,0-0.38,0.17-0.38,0.38v1.52c0,0.01,0,0.01,0,0.02l-1.66,1.66c-0.13-0.97-0.17-2.72,0.9-4.11c1.1-1.44,3.12-2.17,6-2.17
		c0.02,0,0.05,0,0.07,0C22.25,12.62,21.52,14.66,20.07,15.77z"/>
	<rect id="XMLID_294_" y="0" fill="none" width="24" height="24"/>
</g>
</svg>
