<?xml version="1.0" encoding="utf-8"?>
<!-- Generator: Adobe Illustrator 19.0.0, SVG Export Plug-In . SVG Version: 6.00 Build 0)  -->
<svg version="1.1" id="Layer_1" xmlns="http://www.w3.org/2000/svg" xmlns:xlink="http://www.w3.org/1999/xlink" x="0px" y="0px"
	 width="24px" height="24px" viewBox="0 0 24 24" enable-background="new 0 0 24 24" xml:space="preserve">
<g id="XMLID_1_">
	<g id="XMLID_74_">
		<polygon id="XMLID_75_" fill="#181616" points="17.82,20.22 5.34,20.22 5.34,14.86 3.55,14.86 3.55,22 19.6,22 19.6,14.86 
			17.82,14.86 		"/>
		
			<rect id="XMLID_76_" x="10.23" y="7.5" transform="matrix(0.7684 0.64 -0.64 0.7684 8.7722 -7.4607)" fill="#181616" width="8.92" height="1.78"/>
		
			<rect id="XMLID_77_" x="12.61" y="5.22" transform="matrix(0.5968 0.8024 -0.8024 0.5968 11.7858 -11.2306)" fill="#181616" width="8.92" height="1.78"/>
		
			<rect id="XMLID_78_" x="8.42" y="10.37" transform="matrix(0.9065 0.4222 -0.4222 0.9065 5.959 -4.3838)" fill="#181616" width="8.92" height="1.78"/>
		<rect id="XMLID_79_" x="7.12" y="16.65" fill="#181616" width="8.92" height="1.78"/>
		
			<rect id="XMLID_80_" x="7.39" y="13.52" transform="matrix(0.9786 0.2057 -0.2057 0.9786 3.2178 -2.1293)" fill="#181616" width="8.92" height="1.78"/>
	</g>
	<rect id="XMLID_275_" fill-rule="evenodd" clip-rule="evenodd" fill="none" width="24" height="24"/>
</g>
</svg>
