<?xml version="1.0" encoding="utf-8"?>
<!-- Generator: Adobe Illustrator 19.0.0, SVG Export Plug-In . SVG Version: 6.00 Build 0)  -->
<svg version="1.1" id="Layer_1" xmlns="http://www.w3.org/2000/svg" xmlns:xlink="http://www.w3.org/1999/xlink" x="0px" y="0px"
	 width="24px" height="24px" viewBox="0 0 24 24" enable-background="new 0 0 24 24" xml:space="preserve">
<g id="XMLID_1_">
	<g id="XMLID_124_">
		<path id="XMLID_126_" d="M22,14.48c0.05,1.81-0.95,3.58-2.9,4.82c-1.67,1.07-3.52,1.7-5.43,2.15c-1.19,0.28-2.41,0.5-3.62,0.54
			c-2.33,0.08-4.13-0.94-5.37-2.93c-1.15-1.85-1.78-3.89-2.27-5.98C2.09,11.8,1.91,10.5,2.05,9.16c0.2-1.88,1.13-3.29,2.67-4.34
			C6.24,3.8,7.96,3.22,9.7,2.71c1.33-0.39,2.69-0.68,4.08-0.71c2.01-0.05,3.74,0.59,5.03,2.22c0.98,1.24,1.59,2.67,2.08,4.16
			C21.48,10.19,21.98,12.02,22,14.48z M14.22,7.64c-0.11-0.33-0.21-0.6-0.3-0.88c-0.07-0.19-0.12-0.38-0.2-0.56
			c-0.22-0.48-0.78-0.71-1.27-0.54c-0.51,0.18-0.81,0.72-0.66,1.25c0.13,0.47,0.3,0.92,0.46,1.41c-0.91,0.3-1.78,0.59-2.66,0.88
			c-0.16-0.48-0.3-0.91-0.46-1.33C8.9,7.28,8.34,7.02,7.8,7.22c-0.56,0.2-0.81,0.73-0.63,1.32C7.3,8.97,7.45,9.39,7.6,9.86
			C7.18,10,6.78,10.13,6.38,10.27c-0.61,0.21-0.91,0.75-0.72,1.31c0.19,0.58,0.75,0.85,1.38,0.65c0.4-0.13,0.8-0.26,1.23-0.4
			c0.29,0.87,0.57,1.71,0.85,2.56c-0.45,0.15-0.86,0.29-1.25,0.43c-0.58,0.21-0.87,0.74-0.7,1.29c0.18,0.57,0.74,0.85,1.34,0.67
			c0.42-0.13,0.83-0.27,1.24-0.4c0.03,0.03,0.05,0.05,0.06,0.07c0.13,0.38,0.26,0.75,0.39,1.13c0.23,0.67,0.76,0.97,1.35,0.77
			c0.58-0.19,0.82-0.77,0.61-1.44c-0.13-0.4-0.26-0.8-0.4-1.22c0.9-0.3,1.77-0.59,2.66-0.89c0.16,0.46,0.29,0.87,0.44,1.28
			c0.22,0.61,0.77,0.89,1.32,0.71c0.57-0.19,0.83-0.76,0.62-1.4c-0.13-0.41-0.27-0.82-0.41-1.25c0.22-0.08,0.41-0.14,0.6-0.2
			c0.2-0.07,0.4-0.14,0.6-0.21c0.63-0.23,0.94-0.78,0.74-1.34c-0.21-0.58-0.76-0.83-1.4-0.62c-0.39,0.12-0.78,0.25-1.21,0.39
			c-0.29-0.87-0.57-1.7-0.86-2.56c0.47-0.16,0.9-0.29,1.32-0.46c0.55-0.22,0.81-0.77,0.62-1.3c-0.2-0.56-0.73-0.83-1.32-0.65
			C15.08,7.35,14.67,7.49,14.22,7.64z"/>
		<path id="XMLID_120_" d="M12.9,10.27c0.29,0.87,0.57,1.7,0.87,2.57c-0.9,0.3-1.76,0.59-2.67,0.9c-0.29-0.86-0.57-1.7-0.87-2.57
			C11.13,10.87,11.99,10.58,12.9,10.27z"/>
	</g>
	<rect id="XMLID_2_" fill="none" width="24" height="24"/>
</g>
</svg>
