<?xml version="1.0" encoding="utf-8"?>
<!-- Generator: Adobe Illustrator 19.0.0, SVG Export Plug-In . SVG Version: 6.00 Build 0)  -->
<svg version="1.1" id="Layer_1" xmlns="http://www.w3.org/2000/svg" xmlns:xlink="http://www.w3.org/1999/xlink" x="0px" y="0px"
	 width="24px" height="24px" viewBox="0 0 24 24" enable-background="new 0 0 24 24" xml:space="preserve">
<g id="XMLID_5_">
	<path id="XMLID_17_" fill="none" d="M0,0h24v24H0V0z"/>
	<g id="XMLID_2_">
		<rect id="XMLID_58_" x="14" y="15" width="7" height="2"/>
		<path id="XMLID_61_" d="M9,13c-1.3,0-2.4,0.84-2.82,2H3v2h3.18C6.6,18.16,7.7,19,9,19c1.66,0,3-1.34,3-3S10.66,13,9,13z"/>
		<rect id="XMLID_62_" x="3" y="7" width="7" height="2"/>
		<path id="XMLID_63_" d="M17.82,7C17.4,5.84,16.3,5,15,5c-1.66,0-3,1.34-3,3s1.34,3,3,3c1.3,0,2.4-0.84,2.82-2H21V7H17.82z"/>
	</g>
</g>
</svg>
