<?xml version="1.0" encoding="utf-8"?>
<!-- Generator: Adobe Illustrator 19.0.0, SVG Export Plug-In . SVG Version: 6.00 Build 0)  -->
<svg version="1.1" id="ic_x5F_shrine_x5F_48px" xmlns="http://www.w3.org/2000/svg" xmlns:xlink="http://www.w3.org/1999/xlink"
	 x="0px" y="0px" width="48px" height="48px" viewBox="0 0 48 48" enable-background="new 0 0 48 48" xml:space="preserve">
<g id="XMLID_121_">
	<g id="XMLID_4_">
		<g id="XMLID_539_">
			<path id="XMLID_540_" fill="#231F20" d="M43.99,16.23c0-0.02,0-0.05,0-0.07c0-0.03-0.02-0.05-0.03-0.08
				c-0.01-0.04-0.03-0.08-0.05-0.12c-0.01-0.02-0.02-0.04-0.03-0.06c0,0,0-0.01-0.01-0.01L36.17,4.32
				c-0.01-0.02-0.03-0.03-0.05-0.05c-0.02-0.03-0.04-0.06-0.07-0.08c-0.02-0.02-0.04-0.03-0.06-0.05c-0.03-0.02-0.06-0.04-0.09-0.05
				c-0.03-0.02-0.06-0.03-0.09-0.04c-0.01,0-0.02-0.01-0.04-0.02c-0.01,0-0.02,0-0.03,0c-0.04-0.01-0.07-0.01-0.11-0.01
				C35.61,4.01,35.59,4,35.57,4H12.43c-0.02,0-0.04,0.01-0.06,0.01c-0.04,0-0.08,0-0.11,0.01c-0.01,0-0.02,0-0.03,0
				c-0.01,0-0.02,0.01-0.04,0.02c-0.03,0.01-0.06,0.03-0.09,0.04c-0.03,0.02-0.06,0.03-0.09,0.06c-0.02,0.01-0.04,0.03-0.06,0.05
				c-0.03,0.02-0.05,0.05-0.07,0.08c-0.01,0.02-0.04,0.03-0.05,0.05L4.12,15.89c0,0,0,0.01-0.01,0.01
				c-0.01,0.02-0.02,0.04-0.03,0.06C4.07,16,4.05,16.04,4.04,16.08c-0.01,0.03-0.02,0.05-0.03,0.08c0,0.02,0,0.05,0,0.07
				c0,0.02-0.01,0.04-0.01,0.06c0,0.02,0.01,0.04,0.01,0.07c0,0.03,0,0.05,0,0.08c0,0.02,0.02,0.04,0.03,0.07
				c0.01,0.04,0.03,0.08,0.05,0.12c0.01,0.02,0.02,0.05,0.04,0.07c0,0,0,0.01,0.01,0.01L23.41,43.7c0.02,0.03,0.06,0.06,0.09,0.09
				c0.02,0.02,0.04,0.04,0.06,0.06c0.01,0.01,0.01,0.01,0.02,0.02c0,0,0,0,0,0c0.02,0.02,0.05,0.02,0.07,0.03
				c0.02,0.01,0.04,0.02,0.06,0.03c0.02,0.01,0.04,0.03,0.07,0.03c0,0,0.01,0,0.01,0c0,0,0,0,0,0c0.06,0.02,0.13,0.03,0.19,0.03
				c0.01,0,0.01,0,0.02,0h0h0h0c0,0,0,0,0,0h0h0c0.01,0,0.01,0,0.02,0c0.06,0,0.13-0.01,0.19-0.03c0,0,0,0,0,0c0,0,0.01,0,0.01,0
				c0.02-0.01,0.04-0.02,0.07-0.03c0.02-0.01,0.04-0.02,0.06-0.03c0.02-0.01,0.05-0.02,0.07-0.03c0,0,0,0,0,0
				c0.01-0.01,0.01-0.01,0.02-0.02c0.02-0.02,0.04-0.04,0.06-0.06c0.03-0.03,0.06-0.06,0.09-0.09l19.28-26.99c0,0,0-0.01,0.01-0.01
				c0.02-0.02,0.02-0.05,0.04-0.07c0.02-0.04,0.04-0.08,0.05-0.12c0.01-0.02,0.02-0.04,0.03-0.07c0.01-0.03,0-0.05,0-0.08
				c0-0.02,0.01-0.04,0.01-0.07C44,16.27,43.99,16.25,43.99,16.23z M34.59,5.45l-2.87,9.56l-6.38-9.56H34.59z M30.36,15.57H17.64
				L24,6.03L30.36,15.57z M22.65,5.45l-6.38,9.56l-2.87-9.56H22.65z M12.18,6.4l2.75,9.16H6.07L12.18,6.4z M6.13,17.01h9.24
				l6.69,22.3L6.13,17.01z M24,40.76l-7.12-23.75h14.25L24,40.76z M25.94,39.31l6.69-22.3h9.24L25.94,39.31z M33.07,15.57l2.75-9.16
				l6.11,9.16H33.07z"/>
		</g>
	</g>
	<rect id="XMLID_3_" x="0" y="0" fill="none" width="48" height="48"/>
</g>
</svg>
